<?xml version="1.0" standalone="no"?><!DOCTYPE svg PUBLIC "-//W3C//DTD SVG 1.1//EN" "http://www.w3.org/Graphics/SVG/1.1/DTD/svg11.dtd"><svg t="1597331738164" class="icon" viewBox="0 0 1024 1024" version="1.1" xmlns="http://www.w3.org/2000/svg" p-id="3943" xmlns:xlink="http://www.w3.org/1999/xlink" width="200" height="200"><defs><style type="text/css"></style></defs><path d="M843.58303289 806.76636445c-6.05843911 0-11.88386133-2.33016889-16.54419911-6.75748978a23.20848213 23.20848213 0 0 1 0-32.85538134l77.12859022-77.12859022-77.12859022-77.12859022a23.20848213 23.20848213 0 1 1 32.85538133-32.85538134l90.87658667 90.87658667c10.48576 10.48576 10.48576 27.72900978 0 38.21476978l-91.10960356 91.10960355c-4.194304 4.194304-10.01972622 6.52447289-16.07816533 6.5244729z" fill="#ffc40a" p-id="3944"></path><path d="M935.624704 969.64516978h-81.55591111c-83.65306311 0-151.69399467-68.04093155-151.69399467-151.69399467s68.04093155-151.69399467 151.69399467-151.69399466h81.55591111c13.04894578 0 23.53470578 10.48576 23.53470578 23.53470577s-10.48576 23.53470578-23.53470578 23.53470578h-81.55591111a104.62458311 104.62458311 0 1 0 0 209.24916622h81.55591111c13.04894578 0 23.53470578 10.48576 23.53470578 23.53470578s-10.48576 23.53470578-23.53470578 23.53470578zM330.47984355 643.18850845h-68.9729991c-51.49673245 0-93.20675555-41.71002311-93.20675556-93.20675556s41.71002311-93.20675555 93.20675556-93.20675556h68.9729991a93.18345387 93.18345387 0 1 1 0 186.41351112z m-68.9729991-139.81013334c-25.63185778 0-46.60337778 20.97152-46.60337778 46.60337778s20.97152 46.60337778 46.60337778 46.60337778h68.9729991c25.63185778 0 46.60337778-20.97152 46.60337778-46.60337778s-20.97152-46.60337778-46.60337778-46.60337778h-68.9729991zM330.47984355 876.20539733h-68.9729991c-51.49673245 0-93.20675555-41.71002311-93.20675556-93.20675555s41.71002311-93.20675555 93.20675556-93.20675556h68.9729991c51.49673245 0 93.20675555 41.71002311 93.20675556 93.20675556s-41.71002311 93.20675555-93.20675556 93.20675555z m-68.9729991-139.81013333c-25.63185778 0-46.60337778 20.97152-46.60337778 46.60337778s20.97152 46.60337778 46.60337778 46.60337777h68.9729991c25.63185778 0 46.60337778-20.97152 46.60337778-46.60337777s-20.97152-46.60337778-46.60337778-46.60337778h-68.9729991zM633.40179911 643.18850845h-68.97299911c-51.49673245 0-93.20675555-41.71002311-93.20675555-93.20675556s41.71002311-93.20675555 93.20675555-93.20675556h68.97299911a93.18345387 93.18345387 0 1 1 0 186.41351112z m-68.97299911-139.81013334c-25.63185778 0-46.60337778 20.97152-46.60337778 46.60337778s20.97152 46.60337778 46.60337778 46.60337778h68.97299911c25.63185778 0 46.60337778-20.97152 46.60337778-46.60337778s-20.97152-46.60337778-46.60337778-46.60337778h-68.97299911z" fill="#ffc40a" p-id="3945"></path><path d="M96.763904 969.41215289c-12.81592889 0-23.30168889-10.48576-23.30168889-23.30168889V230.04956445l442.73208889-147.49969067 442.73208889 147.49969067v366.30254933c0 12.81592889-10.48576 23.30168889-23.30168889 23.30168889s-23.30168889-10.48576-23.30168889-23.30168889V263.83701333l-396.12871111-132.120576-396.12871111 132.120576v682.27345067c0 12.81592889-10.48576 23.30168889-23.30168889 23.30168889z" fill="#ffc40a" p-id="3946"></path></svg>