<?xml version="1.0" standalone="no"?><!DOCTYPE svg PUBLIC "-//W3C//DTD SVG 1.1//EN" "http://www.w3.org/Graphics/SVG/1.1/DTD/svg11.dtd"><svg t="1597331646221" class="icon" viewBox="0 0 1024 1024" version="1.1" xmlns="http://www.w3.org/2000/svg" p-id="1758" xmlns:xlink="http://www.w3.org/1999/xlink" width="200" height="200"><defs><style type="text/css"></style></defs><path d="M764.5696 353.28l4.4544 4.5056 93.8496-94.6176c8.96-9.0112 8.96-18.0224 8.96-27.0336a64.6656 64.6656 0 0 0-8.96-27.0336 40.3968 40.3968 0 0 0-49.152 4.5056l-93.7984 94.4128 8.9088 4.5056c8.96 18.0224 22.3232 27.0336 35.7376 40.7552zM188.16 519.7824H58.5728a35.84 35.84 0 0 0 0 72.0896h129.5872z m361.9328-419.0208a35.3792 35.3792 0 0 0-35.84-35.84 38.6048 38.6048 0 0 0-35.84 35.84V240.64h71.68zM264.1408 357.5808l4.4544-4.5056A171.4176 171.4176 0 0 1 308.8384 312.32l8.9088-4.5056-98.304-98.9184c-17.8688-13.5168-40.192-13.5168-53.6064 0a64.6656 64.6656 0 0 0-8.96 27.0336 64.6656 64.6656 0 0 0 8.96 27.0336z m705.9968 162.2016h-129.5872v72.0896h129.5872a35.84 35.84 0 0 0 0-72.0896zM599.04 600.8832h-80.2304l44.6976-45.056c8.96-9.0112 8.96-18.0224 8.96-27.0336a64.6656 64.6656 0 0 0-8.96-27.0336 34.8672 34.8672 0 0 0-49.152 0l-107.2128 103.6288a35.5328 35.5328 0 0 0 0 49.5616q13.3632 13.5168 40.192 13.5168h75.9808L460.8 740.5568c-8.96 9.0112-8.96 18.0224-8.96 27.0336A64.6656 64.6656 0 0 0 460.8 794.624c8.8576 9.216 17.8176 9.216 26.7264 9.216a63.232 63.232 0 0 0 26.8288-9.0112l107.52-108.1344a58.5216 58.5216 0 0 0 17.8688-45.056c-0.256-22.7328-13.6704-40.7552-40.704-40.7552z m259.1744 292.864h-57.9072v-328.9088C800.3072 407.1424 670.72 276.48 514.3552 276.48s-285.952 130.6624-285.952 288.3584v328.9088H170.2912a35.84 35.84 0 0 0 0 72.0896h688.128a35.84 35.84 0 0 0 0-72.0896z m-129.5872 0H299.8784v-306.3808c0-58.5728 22.3232-112.64 62.5664-157.696a204.544 204.544 0 0 1 303.8208 0c40.2432 40.5504 62.5664 99.1232 62.5664 157.696z" fill="#eb4459" p-id="1759"></path></svg>