<?xml version="1.0" standalone="no"?><!DOCTYPE svg PUBLIC "-//W3C//DTD SVG 1.1//EN" "http://www.w3.org/Graphics/SVG/1.1/DTD/svg11.dtd"><svg t="1597331712466" class="icon" viewBox="0 0 1024 1024" version="1.1" xmlns="http://www.w3.org/2000/svg" p-id="3220" xmlns:xlink="http://www.w3.org/1999/xlink" width="200" height="200"><defs><style type="text/css"></style></defs><path d="M889.81333333 774.82666667H294.82666667c-11.41333333-28.37333333-34.66666667-50.77333333-63.68-60.90666667v-537.6c0-17.06666667-6.61333333-33.17333333-18.77333334-45.22666667l-51.73333333-51.73333333c-12.48-12.48-32.74666667-12.48-45.22666667 0s-12.48 32.74666667 0 45.22666667l51.73333334 51.73333333v535.46666667c-44.90666667 12.58666667-77.97333333 53.86666667-77.97333334 102.72 0 58.77333333 47.89333333 106.66666667 106.66666667 106.66666666 50.45333333 0 92.90666667-35.2 103.89333333-82.45333333h558.08v50.66666667c0 17.70666667 14.29333333 32 32 32s32-14.29333333 32-32v-82.66666667c0-17.6-14.29333333-31.89333333-32-31.89333333z m-693.97333333 82.34666666c-23.57333333 0-42.66666667-19.09333333-42.66666667-42.66666666s19.09333333-42.66666667 42.66666667-42.66666667 42.66666667 19.09333333 42.66666667 42.66666667-19.09333333 42.66666667-42.66666667 42.66666666z m156.26666667-119.89333333h458.88c35.30666667 0 64-28.69333333 64-64V214.4c0-35.30666667-28.69333333-64-64-64H352.10666667c-35.30666667 0-64 28.69333333-64 64v458.88c0 35.30666667 28.69333333 64 64 64zM645.86666667 214.4v132.69333333l-47.14666667-35.73333333c-11.41333333-8.64-27.2-8.64-38.61333333 0l-47.14666667 35.73333333V214.4h132.90666667z m-293.76 0h96.85333333v197.12c0 12.16 6.93333333 23.25333333 17.81333333 28.69333333 4.48 2.24 9.38666667 3.30666667 14.18666667 3.30666667 6.82666667 0 13.65333333-2.24 19.30666667-6.50666667l79.14666666-60.05333333 79.14666667 60.05333333c9.70666667 7.36 22.72 8.53333333 33.6 3.2 10.88-5.44 17.81333333-16.53333333 17.81333333-28.69333333V214.4h101.01333334v458.88H352.10666667V214.4z" fill="#428cff" p-id="3221"></path></svg>