<?xml version="1.0" standalone="no"?><!DOCTYPE svg PUBLIC "-//W3C//DTD SVG 1.1//EN" "http://www.w3.org/Graphics/SVG/1.1/DTD/svg11.dtd"><svg t="1597331708037" class="icon" viewBox="0 0 1024 1024" version="1.1" xmlns="http://www.w3.org/2000/svg" p-id="3075" xmlns:xlink="http://www.w3.org/1999/xlink" width="200" height="200"><defs><style type="text/css"></style></defs><path d="M512.11377778 227.19146667a18.46613333 18.46613333 0 0 0 18.46613333-18.46613334V68.26666667a18.46613333 18.46613333 0 1 0-36.93226666 0v140.45866666a18.46613333 18.46613333 0 0 0 18.46613333 18.46613334zM400.94151111 238.58062222a18.46613333 18.46613333 0 0 0 29.58222222-22.14115555L339.39911111 94.79964445a18.46613333 18.46613333 0 1 0-29.58222222 22.14115555zM597.43573333 242.28977778a18.46613333 18.46613333 0 0 0 25.85031112-3.70915556l91.10186666-121.62844444a18.46613333 18.46613333 0 1 0-29.58222222-22.14115556l-91.10186667 121.62844445a18.46613333 18.46613333 0 0 0 3.73191111 25.85031111z" fill="#ff5f40" p-id="3076"></path><path d="M1012.38328889 175.78666667a32.59733333 32.59733333 0 0 0-46.10275556 0L763.44888889 378.60693333H260.75591111L57.93564445 175.78666667A32.59733333 32.59733333 0 0 0 11.83288889 221.86666667l202.92266666 202.94542222v518.73564444a30.07146667 30.07146667 0 0 0 30.07146667 30.07146667h534.86933333a30.07146667 30.07146667 0 0 0 30.07146667-30.07146667V424.51626667L1012.38328889 221.86666667a32.59733333 32.59733333 0 0 0 0-46.08zM744.57315555 878.36444445A30.07146667 30.07146667 0 0 1 714.52444445 908.42453333H310.02168889A30.07146667 30.07146667 0 0 1 279.95022222 878.36444445V473.87306667a30.07146667 30.07146667 0 0 1 30.07146667-30.07146667H714.52444445a30.07146667 30.07146667 0 0 1 30.07146666 30.07146667z" fill="#ff5f40" p-id="3077"></path></svg>