<?xml version="1.0" standalone="no"?><!DOCTYPE svg PUBLIC "-//W3C//DTD SVG 1.1//EN" "http://www.w3.org/Graphics/SVG/1.1/DTD/svg11.dtd"><svg t="1597331653817" class="icon" viewBox="0 0 1024 1024" version="1.1" xmlns="http://www.w3.org/2000/svg" p-id="1902" xmlns:xlink="http://www.w3.org/1999/xlink" width="200" height="200"><defs><style type="text/css"></style></defs><path d="M899.0421875 544.2828125H124.7984375c-17.825625 0-32.29125-14.465625-32.29125-32.2828125 0-17.8265625 14.465625-32.293125 32.2921875-32.293125h774.24375c17.851875 0 32.2921875 14.465625 32.2921875 32.293125-0.0046875 17.818125-14.439375 32.2828125-32.293125 32.2828125zM834.875 931.7403125H641.1509375c-17.851875 0-32.2875-14.4403125-32.2875-32.29125 0-17.8546875 14.435625-32.2903125 32.2875-32.2903125h193.725c17.821875 0 32.2875-14.465625 32.2875-32.281875V673.435625c0-17.8528125 14.43-32.2875 32.293125-32.2875 17.8528125 0 32.278125 14.4346875 32.278125 32.2875V834.875c0.0046875 53.4-43.4559375 96.864375-96.8596875 96.864375z m-484.310625 0H189.123125c-53.398125 0-96.8596875-43.46625-96.8596875-96.864375V673.435625c0-17.8528125 14.4665625-32.2875 32.28375-32.2875 17.8265625 0 32.29125 14.4346875 32.29125 32.2875V834.875c0 17.8171875 14.4946875 32.281875 32.2846875 32.281875h161.435625c17.8275 0 32.293125 14.435625 32.293125 32.2903125 0 17.8528125-14.465625 32.2921875-32.2875 32.2921875z m-226.0125-548.896875c-17.821875 0-32.28375-14.461875-32.28375-32.28375V189.123125c0-53.409375 43.456875-96.864375 96.855-96.864375h161.435625c17.8275 0 32.293125 14.465625 32.293125 32.2875 0 17.8171875-14.465625 32.2828125-32.293125 32.2828125H189.123125c-17.79 0-32.2846875 14.4975-32.2846875 32.293125v161.435625c0 17.82375-14.465625 32.2846875-32.2875 32.2846875z m774.9046875 0c-17.863125 0-32.2921875-14.461875-32.2921875-32.28375V189.123125c0-17.791875-14.461875-32.293125-32.289375-32.293125H641.1509375c-17.851875 0-32.2875-14.465625-32.2875-32.28375 0-17.8209375 14.435625-32.2875 32.2875-32.2875h193.725c53.4028125 0 96.8596875 43.456875 96.8596875 96.8653125v161.435625c0.00375 17.821875-14.42625 32.2828125-32.278125 32.2828125z m0 0" fill="#f09ae9" p-id="1903"></path></svg>