<?xml version="1.0" standalone="no"?><!DOCTYPE svg PUBLIC "-//W3C//DTD SVG 1.1//EN" "http://www.w3.org/Graphics/SVG/1.1/DTD/svg11.dtd"><svg t="1597331734383" class="icon" viewBox="0 0 1024 1024" version="1.1" xmlns="http://www.w3.org/2000/svg" p-id="3797" xmlns:xlink="http://www.w3.org/1999/xlink" width="200" height="200"><defs><style type="text/css"></style></defs><path d="M770.88176355 619.88681955h-68.9729991c-51.49673245 0-93.20675555-41.71002311-93.20675556-93.20675555s41.71002311-93.20675555 93.20675556-93.20675555h68.9729991c51.49673245 0 93.20675555 41.71002311 93.20675556 93.20675555 0 51.26371555-41.94304 93.20675555-93.20675556 93.20675555z m-69.206016-139.81013333c-25.63185778 0-46.60337778 20.97152-46.60337777 46.60337778s20.97152 46.60337778 46.60337777 46.60337778h68.97299912c25.63185778 0 46.60337778-20.97152 46.60337778-46.60337778s-20.97152-46.60337778-46.60337778-46.60337778h-68.97299912zM770.88176355 852.90370845h-68.9729991c-51.49673245 0-93.20675555-41.71002311-93.20675556-93.20675556s41.71002311-93.20675555 93.20675556-93.20675556h68.9729991c51.49673245 0 93.20675555 41.71002311 93.20675556 93.20675556s-41.94304 93.20675555-93.20675556 93.20675556z m-69.206016-139.81013334c-25.63185778 0-46.60337778 20.97152-46.60337777 46.60337778s20.97152 46.60337778 46.60337777 46.60337778h68.97299912c25.63185778 0 46.60337778-20.97152 46.60337778-46.60337778s-20.97152-46.60337778-46.60337778-46.60337778h-68.97299912zM467.959808 619.88681955h-68.97299911c-51.49673245 0-93.20675555-41.71002311-93.20675556-93.20675555s41.71002311-93.20675555 93.20675556-93.20675555h68.97299911c51.49673245 0 93.20675555 41.71002311 93.20675555 93.20675555 0 51.26371555-41.94304 93.20675555-93.20675555 93.20675555z m-69.206016-139.81013333c-25.63185778 0-46.60337778 20.97152-46.60337778 46.60337778s20.97152 46.60337778 46.60337778 46.60337778h68.97299911c25.63185778 0 46.60337778-20.97152 46.60337778-46.60337778s-20.97152-46.60337778-46.60337778-46.60337778h-68.97299911z" fill="#2dd46e" p-id="3798"></path><path d="M935.624704 946.110464c-12.81592889 0-23.30168889-10.48576-23.30168889-23.30168889V240.53532445l-396.12871111-132.120576-396.12871111 132.120576v379.3514951c0 12.81592889-10.48576 23.30168889-23.30168889 23.3016889s-23.30168889-10.48576-23.30168889-23.3016889V206.74787555l442.73208889-147.49969066 442.73208889 147.49969066v715.82788267c0 13.04894578-10.48576 23.53470578-23.30168889 23.53470578zM316.73184711 782.99864178H97.22993778c-12.81592889 0-23.30168889-10.48576-23.30168889-23.30168889s10.48576-23.30168889 23.30168889-23.30168889h219.50190933c12.81592889 0 23.30168889 10.48576 23.30168889 23.30168889s-10.48576 23.30168889-23.30168889 23.30168889z" fill="#2dd46e" p-id="3799"></path><path d="M231.44766578 902.53630578c-6.05843911 0-11.88386133-2.33016889-16.54419911-6.75748978a23.20848213 23.20848213 0 0 1 0-32.85538133l103.22648178-103.22648178-102.9934649-102.99346489a23.20848213 23.20848213 0 1 1 32.85538134-32.85538133l102.99346489 102.99346488c18.17531733 18.17531733 18.17531733 47.76846222 0 65.94377956l-103.22648178 103.22648178c-4.42732089 4.194304-10.48576 6.52447289-16.31118222 6.52447289z" fill="#2dd46e" p-id="3800"></path></svg>