<?xml version="1.0" standalone="no"?><!DOCTYPE svg PUBLIC "-//W3C//DTD SVG 1.1//EN" "http://www.w3.org/Graphics/SVG/1.1/DTD/svg11.dtd"><svg t="1597163820121" class="icon" viewBox="0 0 1024 1024" version="1.1" xmlns="http://www.w3.org/2000/svg" p-id="7667" xmlns:xlink="http://www.w3.org/1999/xlink" width="200" height="200"><defs><style type="text/css"></style></defs><path d="M532.3 421.2h-468c-9.9 0-18-8.1-18-18s8.1-18 18-18h468c9.9 0 18 8.1 18 18s-8.1 18-18 18zM965.7 421.2H750.4c-9.9 0-18-8.1-18-18s8.1-18 18-18h215.3c9.9 0 18 8.1 18 18s-8 18-18 18z" fill="#428cff" p-id="7668" data-spm-anchor-id="a313x.7781069.0.i28" class=""></path><path d="M836.7 958.6H185.5c-9.1 0-16.8-6.8-17.9-15.8l-65.4-537.4c-1.2-9.9 5.8-18.8 15.7-20 9.9-1.2 18.8 5.8 20 15.7l63.5 521.5h619.3L882 405.4c1.2-9.9 10.1-16.9 20-15.8 9.9 1.2 16.9 10.1 15.8 20l-63.2 533.1c-1.1 9-8.7 15.9-17.9 15.9z" fill="#428cff" p-id="7669" data-spm-anchor-id="a313x.7781069.0.i29" class=""></path><path d="M656.8 654.6H303.1c-9.9 0-18-8.1-18-18s8.1-18 18-18h353.8c9.9 0 18 8.1 18 18s-8.1 18-18.1 18zM684.4 805.9H395.1c-9.9 0-18-8.1-18-18s8.1-18 18-18h289.3c9.9 0 18 8.1 18 18s-8.1 18-18 18zM598.1 59.2v179.1h-52.3l104.7 179.1 104.7-179.1h-52.3V59.2H598.1z m0 0" fill="#2fdf75" p-id="7670" data-spm-anchor-id="a313x.7781069.0.i30" class="selected"></path></svg>