<?xml version="1.0" standalone="no"?><!DOCTYPE svg PUBLIC "-//W3C//DTD SVG 1.1//EN" "http://www.w3.org/Graphics/SVG/1.1/DTD/svg11.dtd"><svg t="1597331670568" class="icon" viewBox="0 0 1024 1024" version="1.1" xmlns="http://www.w3.org/2000/svg" p-id="2336" xmlns:xlink="http://www.w3.org/1999/xlink" width="200" height="200"><defs><style type="text/css"></style></defs><path d="M495.36 395.94666667c0.85333333 1.49333333 2.02666667 2.98666667 3.41333333 4.26666666 3.52 3.41333333 8.53333333 5.76 13.86666667 5.54666667 5.44-0.10666667 10.24-2.77333333 13.54666667-6.18666667 0.96-0.96 2.02666667-2.24 2.77333333-3.52l149.65333333-231.46666666c2.02666667-3.2 3.52-6.82666667 3.62666667-11.30666667 0.10666667-4.48-1.81333333-9.38666667-5.22666667-12.58666667-4.37333333-4.16-9.6-5.22666667-14.18666666-5.33333333h-59.73333334l1.06666667-72.85333333c0-5.12-2.13333333-9.92-5.33333333-13.12-3.30666667-3.2-7.78666667-5.12-12.58666667-5.12H440.32c-5.22666667 0-9.92 2.13333333-13.22666667 5.54666666-3.09333333 3.30666667-5.12 7.78666667-5.12 12.69333334l-1.06666666 72.85333333h-59.73333334c-4.8 0.21333333-10.24 1.38666667-14.72 5.86666667-3.2 3.2-4.90666667 8.21333333-4.69333333 12.37333333 0.10666667 4.26666667 1.49333333 7.78666667 3.52 10.88l150.08 231.46666667zM433.06666667 160c6.82666667 0 12.26666667-5.54666667 12.26666666-12.26666667l1.06666667-78.93333333h133.33333333l-1.06666666 78.93333333c0 3.2 1.28 6.4 3.52 8.64 0 0.10666667 0.21333333 0.10666667 0.10666666 0.32 2.34666667 2.13333333 5.33333333 3.41333333 8.53333334 3.41333334h61.33333333L511.89333333 376.96 371.62666667 160H433.06666667z" fill="#1296db" p-id="2337"></path><path d="M970.34666667 268.48l-220.8 208.10666667H274.34666667l-220.8-208.10666667L34.13333333 289.38666667l198.72 187.2h-2.66666666v464.53333333c0 21.33333333 17.28 38.61333333 38.29333333 38.61333333h484.26666667c21.01333333 0 38.29333333-17.38666667 38.29333333-38.61333333V476.58666667L989.86666667 289.38666667l-19.52-20.90666667zM545.49333333 964.90666667h-80.21333333v-473.6h80.21333333v473.6zM739.2 930.24H611.62666667c-7.89333333 0-14.18666667-6.29333333-14.18666667-14.18666667v-80.53333333c0-7.89333333 6.29333333-14.18666667 14.18666667-14.18666667h127.46666666c7.89333333 0 14.18666667 6.29333333 14.18666667 14.18666667v80.53333333h0.10666667c0 7.89333333-6.29333333 14.18666667-14.18666667 14.18666667z" fill="#1296db" p-id="2338"></path><path d="M728.64 861.65333333h-77.44c-3.09333333 0-5.54666667 2.56-5.54666667 5.54666667 0 3.09333333 2.56 5.54666667 5.54666667 5.54666667h77.44c3.09333333 0 5.54666667-2.56 5.54666667-5.54666667s-2.56-5.54666667-5.54666667-5.54666667zM728.64 884.05333333h-55.36c-3.09333333 0-5.54666667 2.56-5.54666667 5.54666667 0 3.09333333 2.56 5.54666667 5.54666667 5.54666667h55.36c3.09333333 0 5.54666667-2.56 5.54666667-5.54666667s-2.56-5.54666667-5.54666667-5.54666667zM728.64 906.66666667h-55.36c-3.09333333 0-5.54666667 2.56-5.54666667 5.54666666 0 3.09333333 2.56 5.54666667 5.54666667 5.54666667h55.36c3.09333333 0 5.54666667-2.56 5.54666667-5.54666667 0-3.2-2.56-5.54666667-5.54666667-5.54666666zM728.64 839.25333333h-104.21333333c-3.09333333 0-5.54666667 2.56-5.54666667 5.54666667 0 3.09333333 2.56 5.54666667 5.54666667 5.54666667h104.21333333c3.09333333 0 5.54666667-2.56 5.54666667-5.54666667 0-3.2-2.56-5.54666667-5.54666667-5.54666667z" fill="#1296db" p-id="2339"></path></svg>