<?xml version="1.0" standalone="no"?><!DOCTYPE svg PUBLIC "-//W3C//DTD SVG 1.1//EN" "http://www.w3.org/Graphics/SVG/1.1/DTD/svg11.dtd"><svg t="1597331730214" class="icon" viewBox="0 0 1024 1024" version="1.1" xmlns="http://www.w3.org/2000/svg" p-id="3652" xmlns:xlink="http://www.w3.org/1999/xlink" width="200" height="200"><defs><style type="text/css"></style></defs><path d="M592.581875 981.81875001a27.928125 27.928125 0 0 1-27.92812501-27.92812501V842.2690625a27.928125 27.928125 0 0 1 55.82625001 0v111.650625c0 15.418125-12.5090625 27.898125-27.928125 27.898125z m334.89375-334.92375001c0 15.418125-12.508125 27.9271875-27.8971875 27.9271875H787.926875a27.928125 27.928125 0 1 1 0-55.8553125h111.6515625c15.418125 0 27.9271875 12.5090625 27.9271875 27.928125zM819.23 873.5421875a27.8690625 27.8690625 0 0 1-39.47624999 0l-78.92343751-78.924375a27.928125 27.928125 0 0 1 39.47625-39.4471875l78.9234375 78.924375a27.8690625 27.8690625 0 0 1 0 39.4471875zM425.105 32.871875c15.4190625 0 27.928125 12.5090625 27.928125 27.9271875v111.6215625a27.928125 27.928125 0 1 1-55.8553125 0V60.771875c0-15.418125 12.5090625-27.898125 27.928125-27.89812501zM90.1821875 367.7965625c0-15.418125 12.5090625-27.928125 27.9271875-27.928125h111.6215625a27.928125 27.928125 0 0 1 0 55.85531249H118.109375a27.928125 27.928125 0 0 1-27.89812501-27.92812499z m108.275625-226.6471875a27.8690625 27.8690625 0 0 1 39.4471875 0l78.924375 78.9234375a27.928125 27.928125 0 1 1-39.4471875 39.418125l-78.924375-78.894375a27.8690625 27.8690625 0 0 1 0-39.4471875zM624.145625 633.978125a127.3021875 127.3021875 0 0 1-63.5634375-17.28l-39.4771875-22.7784375C464.2625 561.0471875 442.26874999 492.393125 472.086875 440.84374999a27.928125 27.928125 0 1 1 48.320625 27.92718751c-14.4 24.9309375-1.5421875 59.345625 28.6546875 76.8l39.4471875 22.7784375c30.196875 17.454375 66.5015625 11.315625 80.8725-13.614375l200.3203125-346.996875c6.661875-11.52 7.68-25.5421875 2.938125-39.53437499-5.1496875-15.2728125-16.378125-28.509375-31.59375-37.32375001l-39.44625-22.7203125c-15.185625-8.814375-32.203125-11.86875001-48.11625-8.7271875-14.5171875 2.9090625-26.1534375 10.8225-32.75625 22.3125l-91.636875 158.7496875a27.928125 27.928125 0 0 1-48.34875-27.928125L672.378125 93.81874999c14.7778125-25.599375 39.70875001-43.05374999 70.1671875-49.16249998a125.1196875 125.1196875 0 0 1 86.98125 15.12656249l39.4190625 22.77843751c26.9671875 15.5625 47.098125 39.650625 56.581875 67.78124999 9.890625 29.41124999 7.2721875 59.7234375-7.505625 85.2946875l-200.349375 346.996875c-19.141875 33.1921875-55.126875 51.345-93.526875 51.345z" fill="#5260ff" p-id="3653"></path><path d="M335.5634375 888.5815625a127.56374999 127.56374999 0 0 1-63.70875-17.39625l-39.4471875-22.7784375c-56.8434375-32.814375-78.83625001-101.5265625-49.0471875-153.0759375l200.319375-347.025c29.7890625-51.549375 100.246875-66.85124999 157.149375-34.036875l39.44718749 22.7784375c56.8725 32.8434375 78.83625001 101.4975 49.07625001 153.0759375a27.928125 27.928125 0 0 1-48.34875001-27.92718749c14.428125-24.9309375 1.57125001-59.3746875-28.59656249-76.8l-39.47625-22.8075c-30.196875-17.454375-66.4725-11.2875-80.8725 13.61531249L231.7090625 723.2c-14.4 24.96-1.57125001 59.4328125 28.65468751 76.8290625l39.44718749 22.7784375c15.2146875 8.784375 32.3203125 11.86875001 48.11625 8.7271875 14.5453125-2.9090625 26.1815625-10.850625 32.7853125-22.3125l91.636875-158.7496875a27.928125 27.928125 0 1 1 48.34875 27.928125l-91.6359375 158.71875c-14.836875 25.6003125-39.7096875 43.055625-70.1971875 49.16437501a118.89375001 118.89375001 0 0 1-23.2725 2.29781249z" fill="#5260ff" p-id="3654"></path></svg>