<?xml version="1.0" standalone="no"?><!DOCTYPE svg PUBLIC "-//W3C//DTD SVG 1.1//EN" "http://www.w3.org/Graphics/SVG/1.1/DTD/svg11.dtd"><svg t="1597331640207" class="icon" viewBox="0 0 1024 1024" version="1.1" xmlns="http://www.w3.org/2000/svg" p-id="1613" xmlns:xlink="http://www.w3.org/1999/xlink" width="200" height="200"><defs><style type="text/css"></style></defs><path d="M435.2 364.8c-2.133333-23.466667 10.666667-34.133333 38.4-32h162.133333c25.6 0 38.4 10.666667 36.266667 32v106.666667c-2.133333 21.333333-14.933333 34.133333-40.533333 36.266666h-81.066667c8.533333 17.066667 21.333333 32 34.133333 44.8 4.266667-2.133333 8.533333-6.4 17.066667-12.8 27.733333-19.2 44.8-27.733333 46.933333-29.866666 12.8-6.4 23.466667-6.4 32 4.266666 8.533333 10.666667 8.533333 21.333333-4.266666 32-12.8 8.533333-32 21.333333-59.733334 34.133334 8.533333 4.266667 23.466667 8.533333 40.533334 17.066666-2.133333-2.133333 0 0 4.266666 2.133334 19.2 8.533333 29.866667 14.933333 32 21.333333 4.266667 21.333333-2.133333 32-19.2 34.133333 12.8 2.133333 19.2 10.666667 19.2 23.466667 0 14.933333-6.4 23.466667-17.066666 25.6h-145.066667c-53.333333 0-98.133333-10.666667-134.4-32-27.733333 19.2-49.066667 32-59.733333 38.4-10.666667 4.266667-19.2 2.133333-27.733334-6.4-8.533333-10.666667-10.666667-21.333333-4.266666-27.733333 4.266667-4.266667 12.8-10.666667 29.866666-21.333334 14.933333-8.533333 23.466667-14.933333 23.466667-17.066666v-68.266667c0-6.4-2.133333-10.666667-8.533333-10.666667H320c-12.8-2.133333-17.066667-10.666667-17.066667-25.6 2.133333-17.066667 8.533333-25.6 19.2-25.6H384c17.066667-2.133333 23.466667 10.666667 23.466667 32v70.4c2.133333 10.666667 6.4 14.933333 12.8 19.2-2.133333-10.666667 4.266667-17.066667 14.933333-21.333333V364.8z m-110.933333 85.333333c-8.533333-8.533333-8.533333-19.2-2.133334-29.866666 6.4-10.666667 14.933333-12.8 27.733334-8.533334l32 19.2 32 19.2c8.533333 8.533333 8.533333 19.2 2.133333 29.866667-8.533333 10.666667-17.066667 12.8-27.733333 10.666667-21.333333-10.666667-42.666667-23.466667-64-40.533334z m8.533333-91.733333c-8.533333-8.533333-8.533333-17.066667 0-25.6 10.666667-10.666667 21.333333-12.8 32-8.533333l19.2 14.933333c21.333333 17.066667 32 25.6 34.133333 27.733333 8.533333 8.533333 6.4 19.2-2.133333 29.866667-10.666667 10.666667-19.2 12.8-29.866667 6.4-21.333333-14.933333-40.533333-29.866667-53.333333-44.8z m343.466667 294.4c-46.933333-17.066667-83.2-36.266667-113.066667-59.733333 2.133333 6.4 2.133333 8.533333 2.133333 10.666666 0 10.666667-12.8 19.2-40.533333 25.6-19.2 6.4-38.4 10.666667-57.6 14.933334 17.066667 6.4 34.133333 8.533333 51.2 8.533333h157.866667z m-51.2-273.066667h-140.8v19.2h140.8v-19.2z m-140.8 81.066667h140.8v-17.066667h-140.8v17.066667z m0 46.933333v83.2c6.4-2.133333 17.066667-4.266667 32-8.533333s25.6-6.4 27.733333-8.533333c-14.933333-17.066667-27.733333-40.533333-42.666667-68.266667h-17.066666zM925.866667 448l-44.8-44.8c-8.533333-8.533333-21.333333-8.533333-29.866667 0-8.533333 8.533333-8.533333 21.333333 0 29.866667l59.733333 59.733333c4.266667 4.266667 10.666667 6.4 14.933334 6.4 6.4 0 10.666667-2.133333 14.933333-6.4l59.733333-59.733333c8.533333-8.533333 8.533333-21.333333 0-29.866667s-21.333333-8.533333-29.866666 0L925.866667 448z" fill="#eb4459" p-id="1614"></path><path d="M512 957.866667C266.666667 957.866667 66.133333 757.333333 66.133333 512 66.133333 266.666667 266.666667 66.133333 512 66.133333c194.133333 0 364.8 123.733333 424.533333 307.2 4.266667 14.933333 8.533333 29.866667 10.666667 42.666667 2.133333 14.933333 6.4 29.866667 6.4 44.8l-36.266667 4.266667c-2.133333-12.8-4.266667-27.733333-6.4-40.533334-2.133333-12.8-6.4-27.733333-10.666666-40.533333C846.933333 217.6 691.2 104.533333 512 104.533333 285.866667 104.533333 102.4 288 102.4 512S285.866667 919.466667 512 919.466667c194.133333 0 362.666667-136.533333 401.066667-326.4l36.266666 6.4c-42.666667 209.066667-226.133333 358.4-437.333333 358.4z" fill="#eb4459" p-id="1615"></path></svg>