<?xml version="1.0" standalone="no"?><!DOCTYPE svg PUBLIC "-//W3C//DTD SVG 1.1//EN" "http://www.w3.org/Graphics/SVG/1.1/DTD/svg11.dtd"><svg t="1597331658615" class="icon" viewBox="0 0 1024 1024" version="1.1" xmlns="http://www.w3.org/2000/svg" p-id="2046" xmlns:xlink="http://www.w3.org/1999/xlink" width="200" height="200"><defs><style type="text/css"></style></defs><path d="M791.198352 142.504598c-54.622038 0-103.236246 25.602098-134.416386 65.401546L444.123588 85.71929c-4.510734-2.598174-10.048867-2.598174-14.560624 0L69.727573 292.502867c-4.539386 2.612501-7.337105 7.437389-7.337105 12.675694l0 3.115967c0 0.030699 0 0.060375 0 0.090051l0 410.444023c0 5.238304 2.797719 10.063193 7.337105 12.675694l359.836415 206.783577c0.078795 0.045025 0.159636 0.083911 0.239454 0.12689 0.083911 0.047072 0.167822 0.090051 0.252757 0.135076 0.335644 0.176009 0.674359 0.339738 1.019213 0.48914 0.049119 0.021489 0.097214 0.045025 0.146333 0.065492 0.38988 0.161682 0.785899 0.303922 1.184989 0.430812 0.096191 0.030699 0.192382 0.059352 0.289596 0.086981 0.354064 0.105401 0.711198 0.196475 1.070378 0.275269 0.066515 0.014326 0.132006 0.031722 0.199545 0.046049 0.415462 0.082888 0.832971 0.143263 1.252527 0.190335 0.102331 0.011256 0.204661 0.020466 0.308015 0.029676 0.438998 0.038886 0.876973 0.065492 1.316995 0.065492 0.027629 0 0.057305 0 0.113587 0 0.048095 0 0.093121-0.007163 0.141216-0.008186 0.38374-0.007163 0.766456-0.029676 1.14815-0.066515 0.107447-0.010233 0.214894-0.01842 0.321318-0.030699 0.405229-0.048095 0.810459-0.11154 1.212618-0.193405 0.110517-0.022513 0.221034-0.051165 0.330528-0.075725 0.325411-0.074701 0.648776-0.159636 0.970094-0.257873 0.100284-0.029676 0.201591-0.057305 0.301875-0.090051 0.385786-0.125867 0.76748-0.270153 1.144056-0.428765 0.095167-0.039909 0.187265-0.083911 0.280386-0.125867 0.311085-0.140193 0.617054-0.289596 0.918929-0.451278 0.084934-0.046049 0.170892-0.089028 0.254803-0.1361 0.047072-0.025583 0.095167-0.048095 0.141216-0.074701l359.892697-206.783577c4.54041-2.612501 7.338129-7.437389 7.338129-12.675694L811.35339 480.568127c84.600817-9.928117 150.254096-81.543178 150.254096-168.423921C961.608509 218.473827 885.296473 142.504598 791.198352 142.504598zM436.843788 115.253954 640.777457 232.429677c-12.734022 23.76731-19.961634 50.900274-19.961634 79.713506 0 24.286126 5.13802 47.37396 14.375405 68.261687l-19.890003 11.335163L284.811186 202.623837 436.843788 115.253954zM91.625302 710.364837 91.625302 333.792249l327.664691 186.739055 2.752694 379.717208L91.625302 710.364837zM433.845501 495.152287 103.435279 306.85576l152.009066-87.35658 330.367243 189.047634L433.845501 495.152287zM782.119579 710.364837 451.278545 900.459313l-2.753717-379.998617 200.772676-114.419959c28.965705 43.289945 77.379345 72.575946 132.822075 75.473949L782.119579 710.364837zM894.774335 280.71131 789.941732 385.001561c-5.710049 5.66707-13.160741 8.507768-20.61348 8.507768-7.450692 0-14.931061-2.840698-20.612457-8.507768l-61.038168-60.752666c-11.44875-11.391445-11.505032-29.906124-0.113587-41.35385 11.391445-11.419074 29.948079-11.462053 41.3385-0.100284l40.425711 40.240493 84.22117-83.778078c11.44875-11.391445 29.949103-11.362792 41.3385 0.113587C906.28039 250.805186 906.223085 269.319865 894.774335 280.71131z" fill="#1296db" p-id="2047"></path></svg>