<?xml version="1.0" standalone="no"?><!DOCTYPE svg PUBLIC "-//W3C//DTD SVG 1.1//EN" "http://www.w3.org/Graphics/SVG/1.1/DTD/svg11.dtd"><svg t="1601560720627" class="icon" viewBox="0 0 1024 1024" version="1.1" xmlns="http://www.w3.org/2000/svg" p-id="6921" data-spm-anchor-id="a313x.7781069.0.i5" xmlns:xlink="http://www.w3.org/1999/xlink" width="200" height="200"><defs><style type="text/css"></style></defs><path d="M958.09 276.43v-0.05c-0.04-0.6-0.09-1.19-0.16-1.79l-0.03-0.21c-0.07-0.58-0.16-1.16-0.27-1.74-0.01-0.03-0.01-0.07-0.02-0.11-0.12-0.62-0.25-1.24-0.4-1.85 0-0.02-0.01-0.04-0.02-0.06-0.14-0.54-0.29-1.08-0.45-1.62-0.05-0.17-0.11-0.34-0.17-0.52-0.13-0.39-0.26-0.77-0.4-1.15a27.04 27.04 0 0 0-0.69-1.72c-0.07-0.17-0.14-0.34-0.22-0.5-0.24-0.52-0.49-1.04-0.75-1.55-0.05-0.09-0.1-0.18-0.14-0.26-0.23-0.43-0.47-0.86-0.72-1.28l-0.27-0.45c-0.23-0.37-0.46-0.73-0.7-1.09-0.09-0.14-0.18-0.27-0.28-0.4-0.29-0.41-0.59-0.82-0.89-1.22-0.05-0.06-0.1-0.13-0.14-0.19-0.77-0.99-1.6-1.93-2.48-2.83a0.138 0.138 0 0 0-0.04-0.03c-0.43-0.43-0.88-0.86-1.33-1.27-0.03-0.03-0.06-0.05-0.09-0.08a31.526 31.526 0 0 0-4.63-3.43 0.413 0.413 0 0 1-0.11-0.07c-0.47-0.28-0.94-0.55-1.43-0.81-0.14-0.08-0.29-0.15-0.43-0.23-0.38-0.19-0.76-0.38-1.15-0.56-0.19-0.09-0.39-0.18-0.58-0.27-0.35-0.15-0.71-0.3-1.06-0.44-0.21-0.08-0.42-0.17-0.63-0.25l-0.15-0.06-414.63-153.6c-2-0.74-4.05-1.27-6.13-1.59-6-1.34-12.29-0.93-18.1 1.23L84.7 247.99c-0.06 0.02-0.11 0.05-0.17 0.07-0.19 0.07-0.39 0.15-0.58 0.23-0.38 0.15-0.75 0.3-1.12 0.47-0.18 0.08-0.36 0.17-0.54 0.25-0.4 0.19-0.8 0.38-1.19 0.58-0.13 0.07-0.27 0.14-0.4 0.21-0.5 0.27-0.99 0.54-1.46 0.83-0.03 0.02-0.05 0.03-0.08 0.05a32.414 32.414 0 0 0-4.64 3.44c-0.02 0.02-0.05 0.04-0.07 0.06-0.46 0.42-0.91 0.84-1.35 1.28l-0.02 0.02c-0.89 0.9-1.72 1.85-2.49 2.84-0.04 0.05-0.08 0.11-0.12 0.16-0.32 0.41-0.62 0.83-0.92 1.26l-0.26 0.38c-0.25 0.37-0.49 0.74-0.72 1.12-0.09 0.14-0.18 0.29-0.26 0.43-0.25 0.43-0.5 0.86-0.73 1.3-0.04 0.08-0.09 0.16-0.14 0.25-0.27 0.52-0.52 1.04-0.76 1.57-0.07 0.15-0.13 0.31-0.2 0.46-0.17 0.39-0.33 0.77-0.48 1.17-0.07 0.19-0.14 0.37-0.21 0.56-0.14 0.39-0.28 0.78-0.4 1.17-0.05 0.17-0.11 0.33-0.16 0.5-0.16 0.53-0.31 1.05-0.44 1.59-0.01 0.03-0.02 0.06-0.02 0.09-0.15 0.61-0.28 1.23-0.4 1.85 0 0.02-0.01 0.04-0.01 0.05-0.11 0.59-0.2 1.19-0.27 1.78-0.01 0.07-0.02 0.13-0.02 0.2-0.07 0.59-0.13 1.18-0.16 1.78v0.07c-0.05 0.78-0.07 1.57-0.06 2.36v459.87c0 13.36 8.3 25.32 20.82 29.98l152.34 56.79 261.36 97.44c0.51 0.19 1.03 0.37 1.55 0.53l0.42 0.12c0.58 0.17 1.16 0.33 1.75 0.47 0.13 0.03 0.26 0.07 0.39 0.1 0.62 0.14 1.25 0.26 1.88 0.36 0.1 0.02 0.19 0.03 0.29 0.05 0.56 0.12 1.13 0.23 1.7 0.32 0.23 0.04 0.46 0.08 0.69 0.11 0.59 0.08 1.19 0.15 1.79 0.2 0.26 0.02 0.53 0.04 0.79 0.05 0.46 0.03 0.93 0.05 1.39 0.05 0.18 0 0.36 0.02 0.54 0.02 1.58 0 3.17-0.13 4.76-0.37 0.02 0 0.04-0.01 0.06-0.01 1.49-0.23 2.99-0.57 4.47-1.02 0.09-0.03 0.18-0.05 0.28-0.08 0.53-0.17 1.06-0.34 1.59-0.54l414.45-154.21c12.53-4.66 20.83-16.62 20.84-29.98l0.16-459.89c0-0.79-0.02-1.57-0.07-2.35zM478.45 619.78l-0.7 206.8c-0.03 8.46-7.42 14.62-15.33 13.76-0.47-0.12-0.94-0.27-1.41-0.44L138.85 719.8a13.873 13.873 0 0 1-9.03-13V344.22c0-8.48 7.41-14.67 15.34-13.8 0.45 0.12 0.91 0.25 1.36 0.42L469.9 450.33c5.46 2.02 9.08 7.24 9.07 13.06l-0.52 156.39z m37.39-224.27c-2.08 0.77-4.3 1.02-6.47 0.76-0.4-0.11-0.8-0.24-1.19-0.38L190.14 278.36h-0.39l316.96-117.69c2.06-0.77 4.25-1.02 6.4-0.77 0.42 0.11 0.85 0.24 1.26 0.4l317.67 117.69 0.1 0.04-42.66 15.84c0.86-1.82 0.19-4.26-2.02-5.12l-248.49-97.07a14.946 14.946 0 0 0-10.54-0.12l-165.68 60.51c-12.81 4.68-13.14 22.67-0.51 27.82l217.67 88.74c1.71 0.7 3.53 1.06 5.34 1.1l-69.41 25.78z m174.7 4.48l64.15-23.87c2.14-0.8 4.31-1.02 6.38-0.79 5.79 1.53 10.35 6.78 10.35 13.43v92.33c0 5.93-3.76 11.2-9.37 13.12l-63.69 21.88c-2 0.69-4.02 0.89-5.95 0.68-5.83-1.49-10.42-6.73-10.45-13.37l-0.46-90.34a13.87 13.87 0 0 1 9.04-13.07z m-51.97-50.07c-0.23-0.04-0.46-0.1-0.68-0.18l-174.15-71.18c-9.5-3.88-9.17-17.44 0.5-20.86l64.99-22.98c3.37-1.19 7.07-1.13 10.4 0.17l163.73 63.96c11.2 4.37 12.46 18.82 3.97 25.53l-68.76 25.54z m253.45 356.49c0 5.79-3.6 10.98-9.04 13L560.46 839.42c-2.15 0.8-4.33 1.03-6.4 0.79-5.8-1.55-10.35-6.81-10.33-13.47l1.22-363.06c0.02-5.78 3.62-10.95 9.04-12.96l44.98-16.7c2.14-0.8 4.32-1.02 6.4-0.79 5.76 1.54 10.3 6.74 10.33 13.35l0.65 125.56c0.06 10.85 5.61 11.04 14.75 16.89 2.95 1.89 5.06 2.62 7.42 2.9 2.44 0.63 4.81 0.53 8.4 0.53 4.28 0 11.63-1.71 15.99-3.53 0.46-0.19 0.92-0.37 1.4-0.52l149.2-46.56c1.28-0.4 2.52-0.94 3.6-1.73 8.28-6 3.23-19 3.23-30.6V361.45c0-5.8 3.61-10.99 9.04-13.01l46.04-17.1c2.15-0.8 4.32-1.02 6.4-0.79 5.78 1.55 10.33 6.79 10.33 13.43l-0.13 362.43z" p-id="6922" fill="#1296db"></path><path d="M355.4 495.12c-26.06-29.3-55.42-47.48-82.68-51.18-29.02-3.95-52.45 8.79-65.98 35.87-13.53 27.08-15.11 64.4-4.44 105.07 10.02 38.21 29.89 75.38 55.95 104.68s55.42 47.48 82.68 51.18c3.46 0.47 6.84 0.71 10.14 0.71 24.33 0 43.93-12.74 55.84-36.57 13.53-27.08 15.11-64.4 4.44-105.07-10.02-38.22-29.89-75.39-55.95-104.69z m35.5 191.77c-9.22 18.44-26.32 26.96-48.17 23.99-23.61-3.21-49.35-19.31-72.49-45.32-23.13-26.01-40.65-58.57-49.33-91.66-8.03-30.63-7.38-57.65 1.83-76.09 8.01-16.04 21.99-24.57 39.87-24.57 2.68 0 5.45 0.2 8.31 0.59 23.61 3.21 49.35 19.31 72.49 45.32 23.13 26.01 40.65 58.57 49.33 91.66 8.03 30.61 7.37 57.62-1.84 76.08z" p-id="6923" fill="#1296db"></path><path d="M319.91 603.08l-13.47-2.9c0.71 10.1-1.17 16.57-5.62 19.41s-12.57 4.29-24.35 4.36c2.45 3.7 5.04 8.13 7.78 13.28 15.14-0.3 25.4-3.51 30.78-9.62a803.705 803.705 0 0 1 30.93 22.54l6.53-10.49c-12.73-8.2-23.88-15.13-33.43-20.79 1.05-4.35 1.34-9.61 0.85-15.79z" p-id="6924" fill="#1296db" data-spm-anchor-id="a313x.7781069.0.i7" class="selected"></path><path d="M271.33 553.74c9.3 1.71 19.13 3.38 29.48 5.02l0.79 7.55-26.07-5.62 1.19 11.46 26.07 5.62 0.72 6.9-23.28-5.02 3.67 35.29 12.5 2.7-2.48-23.83 35.59 7.68 2.48 23.83 12.51 2.7-3.67-35.29-24.14-5.21-0.72-6.9 27.42 5.91-1.19-11.46-27.42-5.91-0.87-8.37 28.92 4.11-7.26-13.76c-26.5-2.87-52.72-7.21-78.65-13l4.51 43.3c1.87 17.98 0.52 31.21-4.05 39.67 4.9 4.96 8.86 9.21 11.86 12.77 5.94-9.75 7.72-26.09 5.34-49.01l-3.25-31.13z" p-id="6925" fill="#1296db" data-spm-anchor-id="a313x.7781069.0.i6" class="selected"></path></svg>