<?xml version="1.0" standalone="no"?><!DOCTYPE svg PUBLIC "-//W3C//DTD SVG 1.1//EN" "http://www.w3.org/Graphics/SVG/1.1/DTD/svg11.dtd"><svg t="1597250090831" class="icon" viewBox="0 0 1024 1024" version="1.1" xmlns="http://www.w3.org/2000/svg" p-id="2132" xmlns:xlink="http://www.w3.org/1999/xlink" width="200" height="200"><defs><style type="text/css"></style></defs><path d="M907.2 958.3c-18.6 0-33.6-15-33.6-33.6V385.4L510 133.2l-361.7 252v539.5c0 18.6-15 33.6-33.6 33.6s-33.6-15-33.6-33.6v-557c0-11 5.3-21.4 14.4-27.7L478.8 73.1C497.4 60 522.6 60 541.2 73l385.2 267c9 6.3 14.5 16.7 14.5 27.7v557c-0.1 18.6-15.1 33.6-33.7 33.6z m0 0" fill="#ff5f40" p-id="2133"></path><path d="M298.4 448.2c-14.2 0-25.6 11.4-25.6 25.6s11.4 25.6 25.6 25.6S324 488 324 473.8c0-14.1-11.5-25.6-25.6-25.6z m425.9 0H386.1c-14.2 0-25.6 11.4-25.6 25.6s11.4 25.6 25.6 25.6h338.2c14.2 0 25.6-11.4 25.6-25.6 0-14.1-11.4-25.6-25.6-25.6zM298.4 593.4c-14.2 0-25.6 11.4-25.6 25.6 0 14.2 11.4 25.6 25.6 25.6S324 633.2 324 619c0-14.1-11.5-25.6-25.6-25.6z m425.9 0H386.1c-14.2 0-25.6 11.4-25.6 25.6 0 14.2 11.4 25.6 25.6 25.6h338.2c14.2 0 25.6-11.4 25.6-25.6 0-14.1-11.4-25.6-25.6-25.6zM298.4 738.6c-14.2 0-25.6 11.4-25.6 25.6 0 14.2 11.4 25.6 25.6 25.6s25.6-11.4 25.6-25.6c0-14.2-11.5-25.6-25.6-25.6z m425.9 0H386.1c-14.2 0-25.6 11.4-25.6 25.6 0 14.2 11.4 25.6 25.6 25.6h338.2c14.2 0 25.6-11.4 25.6-25.6 0-14.2-11.4-25.6-25.6-25.6z m0 0" fill="#ff5f40" p-id="2134"></path></svg>