<?xml version="1.0" standalone="no"?><!DOCTYPE svg PUBLIC "-//W3C//DTD SVG 1.1//EN" "http://www.w3.org/Graphics/SVG/1.1/DTD/svg11.dtd"><svg t="1597331682046" class="icon" viewBox="0 0 1024 1024" version="1.1" xmlns="http://www.w3.org/2000/svg" p-id="2482" xmlns:xlink="http://www.w3.org/1999/xlink" width="200" height="200"><defs><style type="text/css"></style></defs><path d="M512.00054613 52.54152c-253.34223467 0-459.45302187 206.1227936-459.45302186 459.46502933 0 253.34114347 206.1107872 459.45193067 459.45302186 459.45193067 253.34114347 0 459.47703573-206.1107872 459.47703574-459.45193067C971.47758187 258.6643136 765.34059733 52.54152 512.00054613 52.54152zM512.00054613 912.36650347c-220.753616 0-400.33594027-179.60742933-400.33594026-400.35995414 0-220.7525248 179.58123307-400.34794773 400.33594026-400.34794773 220.7503424 0 400.35995413 179.59542293 400.35995414 400.34794773C912.36050027 732.75907413 732.75088747 912.36650347 512.00054613 912.36650347z" fill="#848ccf" p-id="2483"></path><path d="M247.1732672 562.7014112l121.28716267 0c12.03844693 0 21.83598933-9.76807147 21.83598933-21.83380693 0-12.00788373-9.7975424-21.804336-21.83598933-21.804336L247.1732672 519.06326827c-12.008976 0-21.7508512 9.7964512-21.7508512 21.804336C225.42241707 552.93333973 235.16429227 562.7014112 247.1732672 562.7014112z" fill="#848ccf" p-id="2484"></path><path d="M278.49898987 616.08252053l-31.32681387 0c-11.98277867 0-21.7508512 9.7942688-21.7508512 21.83380694 0 12.0111584 9.76807147 21.77704747 21.7508512 21.77704746l31.32681387 0c12.0646432 0 21.804336-9.76588907 21.804336-21.77704746C300.30441707 625.87569707 290.56472533 616.08252053 278.49898987 616.08252053z" fill="#848ccf" p-id="2485"></path><path d="M319.95298773 417.20091413l121.25769174 0c12.0111584 0 21.80870187-9.78226133 21.80870186-21.81961706 0-12.0100672-9.7975424-21.77923093-21.80870186-21.77923094l-121.25769174 0c-12.0111584 0-21.80761067 9.76807147-21.80761066 21.77923094C298.14537707 407.4186528 307.94182827 417.20091413 319.95298773 417.20091413z" fill="#848ccf" p-id="2486"></path><path d="M271.4695584 489.95116267l121.25987413 0c11.98277867 0 21.7508512-9.7964512 21.7508512-21.80761067 0-12.03626347-9.76916267-21.8054272-21.7508512-21.8054272L271.4695584 446.3381248c-12.0646432 0-21.83380693 9.76916267-21.83380693 21.8054272C249.63575147 480.15471147 259.4049152 489.95116267 271.4695584 489.95116267z" fill="#848ccf" p-id="2487"></path><path d="M635.25027307 576.0682464c-45.4631744 0-82.4626528 36.99729493-82.4626528 82.463744 0 45.43806933 36.99838613 82.409168 82.4626528 82.409168 45.38458453 0 82.409168-36.9710976 82.409168-82.409168C717.65944107 613.06554027 680.6348576 576.0682464 635.25027307 576.0682464zM635.25027307 697.32812053c-21.47141973 0-38.8507072-17.377104-38.8507072-38.79613013 0-21.4201184 17.3792864-38.82450987 38.8507072-38.82450987 21.39282987 0 38.7983136 17.40439147 38.7983136 38.82450987C674.04858667 679.95101653 656.64310293 697.32812053 635.25027307 697.32812053z" fill="#848ccf" p-id="2488"></path><path d="M772.2314048 479.2967712c-0.44315947-0.802272-0.9398048-1.63292373-1.57725547-2.406816l-51.3334048-65.99915627c-22.82818773-29.40245227-68.12872533-51.58118187-105.32249386-51.58118186l-53.98908907 0 0-16.104384c0-25.39109227-20.61457173-46.03404373-45.96200213-46.03404374L344.19361067 297.1711904c-12.008976 0-21.8065184 9.78335253-21.8065184 21.8065184 0 12.03844693 9.7975424 21.81961707 21.8065184 21.81961707l169.85245653 0c1.30000853 0 2.38061973 1.0784288 2.38061973 2.40899946l0 133.87792214c0 25.32014293 20.7259072 45.9652768 46.26762987 45.9652768l205.7997024-0.331824c1.46592 0 2.57272853 1.16029227 2.57272853 2.18523626l0 97.48751574c0 1.24761493-1.0489568 2.2147072-2.4603008 2.2147072l-24.27009386 0c-11.98168747 0-21.7508512 9.77025493-21.7508512 21.8065184 0 12.008976 9.76916267 21.80761067 21.7508512 21.80761066l24.27009386 0c25.40200747 0 46.04714133-20.58946667 46.04714134-45.82774506l0-97.48751574C814.652496 501.01924267 796.08453653 481.3171872 772.2314048 479.2967712zM562.61136 479.4364864c-1.43754027 0-2.60329067-1.05223147-2.60329067-2.3533312l0-74.14740267 53.98908907 0c23.41433707 0 56.53452907 16.21462827 70.9263072 34.714912l32.32228587 41.56424214L562.61136 479.4364864z" fill="#848ccf" p-id="2489"></path><path d="M392.72943253 576.0682464c-45.49046293 0-82.4626528 36.99729493-82.4626528 82.463744 0 45.43806933 36.97218987 82.409168 82.4626528 82.409168 45.43697813 0 82.43536427-36.9710976 82.43536427-82.409168C475.16588907 613.06554027 438.16750293 576.0682464 392.72943253 576.0682464zM392.72943253 697.32812053c-21.4190272 0-38.8517984-17.377104-38.8517984-38.79613013 0-21.4201184 17.4327712-38.82450987 38.8517984-38.82450987 21.39282987 0 38.79613013 17.40439147 38.79613014 38.82450987C431.52556373 679.95101653 414.12226347 697.32812053 392.72943253 697.32812053z" fill="#848ccf" p-id="2490"></path><path d="M522.3460352 616.08252053l-19.86687573 0c-12.06573547 0-21.83162347 9.7942688-21.83162347 21.83380694 0 12.0111584 9.76588907 21.77704747 21.83162347 21.77704746l19.86687573 0c12.01225067 0 21.80761067-9.76588907 21.80761067-21.77704746C544.1536448 625.87569707 534.35828587 616.08252053 522.3460352 616.08252053z" fill="#848ccf" p-id="2491"></path><path d="M511.99836267 52.9344704c-253.0922752 0-459.0306016 205.93832533-459.0306016 459.0436992 0 253.14576 205.93832533 459.0862688 459.0306016 459.0862688 253.14685227 0 459.08736107-205.9405088 459.08736106-459.0862688C971.08572373 258.87279573 765.14521493 52.9344704 511.99836267 52.9344704zM511.99836267 911.4015936c-220.2165856 0-399.423424-179.1511712-399.423424-399.423424 0-220.23077547 179.20683947-399.4092352 399.423424-399.4092352 220.2722528 0 399.423424 179.17845973 399.423424 399.4092352C911.42178773 732.2504224 732.27061547 911.4015936 511.99836267 911.4015936z" fill="#848ccf" p-id="2492"></path></svg>