<?xml version="1.0" standalone="no"?><!DOCTYPE svg PUBLIC "-//W3C//DTD SVG 1.1//EN" "http://www.w3.org/Graphics/SVG/1.1/DTD/svg11.dtd"><svg t="1601560383391" class="icon" viewBox="0 0 1024 1024" version="1.1" xmlns="http://www.w3.org/2000/svg" p-id="1634" xmlns:xlink="http://www.w3.org/1999/xlink" width="200" height="200"><defs><style type="text/css"></style></defs><path d="M477.866667 362.666667H273.066667c-18.773333 0-34.133333-15.36-34.133334-34.133334s15.36-34.133333 34.133334-34.133333h204.8c18.773333 0 34.133333 15.36 34.133333 34.133333s-15.36 34.133333-34.133333 34.133334zM477.866667 550.4H273.066667c-18.773333 0-34.133333-15.36-34.133334-34.133333s15.36-34.133333 34.133334-34.133334h204.8c18.773333 0 34.133333 15.36 34.133333 34.133334s-15.36 34.133333-34.133333 34.133333zM690.773333 394.666667c-13.226667 13.226667-34.986667 13.226667-48.213333 0l-48.213333-48.213334c-13.226667-13.226667-13.226667-34.986667 0-48.213333 13.226667-13.226667 34.986667-13.226667 48.213333 0l48.213333 48.213333c13.226667 13.653333 13.226667 34.986667 0 48.213334z" fill="#ff5f41" p-id="1635"></path><path d="M775.253333 310.186667l-84.48 84.48c-13.226667 13.226667-34.986667 13.226667-48.213333 0-13.226667-13.226667-13.226667-34.986667 0-48.213334l84.48-84.48c13.226667-13.226667 34.986667-13.226667 48.213333 0 13.226667 13.653333 13.226667 34.986667 0 48.213334zM468.48 669.866667H273.066667c-18.773333 0-34.133333 15.36-34.133334 34.133333s15.36 34.133333 34.133334 34.133333h187.733333c-0.426667-23.466667 2.133333-46.506667 7.68-68.266666z" fill="#ff5f41" p-id="1636"></path><path d="M497.92 870.4H153.6V153.6h716.8v307.2h24.32c15.786667 0 30.72 3.84 43.946667 10.666667V136.533333c0-28.16-23.04-51.2-51.2-51.2H136.533333c-28.16 0-51.2 23.04-51.2 51.2v750.933334c0 28.16 23.04 51.2 51.2 51.2h417.28c-22.186667-19.626667-40.96-42.666667-55.893333-68.266667z" fill="#ff5f41" p-id="1637"></path><path d="M876.8 587.093333h17.92c16.213333 0 29.013333-13.226667 29.013333-29.013333s-13.226667-29.013333-29.013333-29.013333h-112.64c-16.213333 0-29.013333 13.226667-29.013333 29.013333v112.64c0 16.213333 13.226667 29.013333 29.013333 29.013333s29.013333-13.226667 29.013333-29.013333v-49.066667c38.4 26.453333 62.72 72.106667 58.88 122.88-5.12 66.986667-59.306667 121.173333-126.293333 125.866667-79.786667 5.546667-146.346667-57.6-146.346667-136.106667 0-58.453333 36.693333-107.946667 88.32-127.573333 13.653333-5.12 22.613333-17.92 22.613334-32 0-23.466667-23.466667-40.533333-45.226667-32.426667-80.64 29.866667-137.386667 108.373333-133.546667 200.106667 4.266667 106.24 90.453333 192.426667 196.266667 196.693333 116.906667 4.693333 212.906667-88.746667 212.906667-204.8 0-58.026667-23.893333-110.08-61.866667-147.2z" fill="#ff5f41" p-id="1638"></path></svg>