<?xml version="1.0" standalone="no"?><!DOCTYPE svg PUBLIC "-//W3C//DTD SVG 1.1//EN" "http://www.w3.org/Graphics/SVG/1.1/DTD/svg11.dtd"><svg t="1597249773012" class="icon" viewBox="0 0 1024 1024" version="1.1" xmlns="http://www.w3.org/2000/svg" p-id="1926" xmlns:xlink="http://www.w3.org/1999/xlink" width="200" height="200"><defs><style type="text/css"></style></defs><path d="M841.13635555 563.45789667c-23.30168889 0-42.71976334-18.44716999-42.71976334-41.74886001 0-9.70903666 2.91271111-18.44716999 8.73813334-26.2144 6.79632555-8.73813333 16.50536334-14.56355555 28.15620778-16.50536221l126.2174811-18.44717112c23.30168889-3.88361443 45.63247445 11.65084445 49.5160889 34.95253333 3.88361443 23.30168889-11.65084445 45.63247445-34.95253334 49.51608889h-1.94180665l-126.21748224 18.44717112h-6.79632555zM137.23116999 546.95253333c-2.91271111 0-5.82542222 0-8.73813333-0.97090332l-125.24657778-24.27259335h-0.97090333c-23.30168889-4.8545189-37.86524445-27.18530333-33.01072554-49.51608889 3.88361443-20.38897778 22.33078557-33.98163001 42.7197622-33.98162887 2.91271111 0 5.82542222 0 8.73813334 0.97090332l125.24657778 25.24349668c11.65084445 1.94180779 21.3598811 8.73813333 27.18530446 18.44716999 6.79632555 9.70903666 8.73813333 20.38897778 6.79632554 32.03982222-4.8545189 17.47626667-22.33078557 32.03982222-42.71976334 32.03982222zM723.65700779 351.80088889c-10.67994112 0-20.38897778-3.88361443-28.15620779-10.67994112h-0.97090333c-17.47626667-15.53445888-18.44716999-41.74885888-2.9127111-59.22512555l84.46862222-94.17765888c15.53445888-17.47626667 42.71976334-19.41807445 61.16693333-3.88361557 17.47626667 15.53445888 18.44716999 41.74885888 2.91271111 59.22512668l-84.46862222 94.17765888c-7.76723001 9.70903666-19.41807445 14.56355555-32.03982222 14.56355556zM264.41955555 341.12094777c-13.59265223 0-25.24349667-5.82542222-33.98163-16.5053622l-79.61410333-98.06127446c-14.56355555-18.44716999-10.67994112-44.66156999 7.76723001-59.22512554 7.76723001-5.82542222 17.47626667-9.70903666 27.18530332-9.7090378 12.62174777 0 25.24349667 5.82542222 33.98163002 16.50536334l79.61410332 98.06127446c14.56355555 18.44716999 10.67994112 44.66156999-7.76723001 59.22512554-7.76723001 6.79632555-17.47626667 9.70903666-27.18530333 9.70903666zM496.46554112 264.41955555h-0.97090446c-11.65084445 0-22.33078557-4.8545189-30.09801444-12.62174776s-12.62174777-19.41807445-11.65084444-30.09801558v-125.24657778c0.97090333-23.30168889 19.41807445-41.74885888 42.71976334-41.74885888h0.97090333c23.30168889 0 42.71976334 20.38897778 41.74885888 43.69066667v125.24657778c-0.97090333 22.33078557-19.41807445 40.77795555-42.71976221 40.77795555zM491.61102222 299.37208889h-3.88361443c-152.4318811-0.97090333-277.67845888 125.24657778-278.64936334 282.53297778v346.61262222h276.70755555l-98.06127445-123.30476999s-4.8545189-45.63247445 38.8361489-27.18530447c25.24349667 11.65084445 33.98163001 35.92343666 33.98162888 35.9234378l0.97090446-188.3553189s26.2144-39.80705223 49.51608888 0l0.97090333 118.45025224s28.15620779-38.83614777 62.13783666 2.9127111c0 0 25.24349667-42.71976334 60.19603001 1.94180666 0 0 25.24349667-49.51608889 49.51608888 4.85451889v149.51916999s-1.94180779 11.65084445-21.3598811 25.24349668h107.77031112v-346.61262222c-0.97090333-157.2864-126.2174811-283.5038811-278.64936335-282.53297778z m66.02145223 393.216v-43.69066667c20.38897778-19.41807445 33.98163001-46.60337778 33.98162888-75.73048889 0-56.31241443-45.63247445-101.94488889-102.91579222-101.94488888-57.2833189 0-102.91579221 45.63247445-102.91579221 101.94488888 0 30.09801443 13.59265223 57.2833189 34.95253333 75.73048889v41.74885888c-41.74885888-23.30168889-69.90506667-66.99235555-69.90506666-117.47934777 0-75.73048889 61.16693333-136.89742222 137.86832554-136.89742222 75.73048889 0 138.83923001 61.16693333 137.86832555 138.83923001 0 50.48699221-27.18530333 94.17765888-68.93416221 117.47934777z" fill="#2dd36f" p-id="1927"></path></svg>