<?xml version="1.0" standalone="no"?><!DOCTYPE svg PUBLIC "-//W3C//DTD SVG 1.1//EN" "http://www.w3.org/Graphics/SVG/1.1/DTD/svg11.dtd"><svg t="1597163755030" class="icon" viewBox="0 0 1024 1024" version="1.1" xmlns="http://www.w3.org/2000/svg" p-id="7417" data-spm-anchor-id="a313x.7781069.0.i24" xmlns:xlink="http://www.w3.org/1999/xlink" width="200" height="200"><defs><style type="text/css"></style></defs><path d="M584.282353 591.811765l-36.141177 36.141176 84.329412 84.329412 138.541177-126.494118-36.141177-42.164706-102.4 96.376471zM584.282353 368.941176l-36.141177 42.164706 84.329412 84.329412 138.541177-126.494118-36.141177-42.164705-102.4 90.352941zM373.458824 128c0-18.070588 12.047059-30.117647 24.094117-30.117647h222.870588c12.047059 0 24.094118 12.047059 24.094118 30.117647v54.211765c0 18.070588-12.047059 30.117647-24.094118 30.117647h-222.870588c-12.047059 0-24.094118-12.047059-24.094117-30.117647v-54.211765z m-54.211765 0v54.211765c0 48.188235 36.141176 84.329412 84.329412 84.329411h222.870588c42.164706 0 84.329412-36.141176 84.329412-84.329411v-54.211765c0-48.188235-36.141176-84.329412-84.329412-84.329412h-222.870588c-48.188235 0-84.329412 36.141176-84.329412 84.329412z" fill="#2fdf75" p-id="7418" data-spm-anchor-id="a313x.7781069.0.i21" class=""></path><path d="M740.894118 152.094118h48.188235c48.188235 0 84.329412 36.141176 84.329412 84.329411v608.376471c0 48.188235-36.141176 84.329412-84.329412 84.329412h-548.141177c-48.188235 0-84.329412-36.141176-84.329411-84.329412v-608.376471c0-48.188235 36.141176-84.329412 84.329411-84.329411h54.211765v-54.211765h-54.211765c-78.305882 0-138.541176 60.235294-138.541176 138.541176v608.376471c0 78.305882 60.235294 138.541176 138.541176 138.541176h548.141177c78.305882 0 138.541176-60.235294 138.541176-138.541176v-608.376471c0-78.305882-60.235294-138.541176-138.541176-138.541176h-48.188235v54.211765z" fill="#6a64ff" p-id="7419" data-spm-anchor-id="a313x.7781069.0.i20" class=""></path><path d="M289.129412 399.058824h168.658823v-54.211765h-168.658823zM289.129412 567.717647h168.658823v-54.211765h-168.658823zM289.129412 730.352941h168.658823v-54.211765h-168.658823z" fill="#6a64ff" p-id="7420" data-spm-anchor-id="a313x.7781069.0.i26" class="selected"></path></svg>