<?xml version="1.0" standalone="no"?><!DOCTYPE svg PUBLIC "-//W3C//DTD SVG 1.1//EN" "http://www.w3.org/Graphics/SVG/1.1/DTD/svg11.dtd"><svg t="1597331687152" class="icon" viewBox="0 0 1024 1024" version="1.1" xmlns="http://www.w3.org/2000/svg" p-id="2641" xmlns:xlink="http://www.w3.org/1999/xlink" width="200" height="200"><defs><style type="text/css"></style></defs><path d="M479.94084 909.430638 142.416594 909.430638 142.416594 108.790752l612.252285 0 0 525.909801c0 13.005198 10.543124 23.548322 23.548322 23.548322 13.006222 0 23.548322-10.543124 23.548322-23.548322L801.765523 93.092211c0-17.340947-14.057157-31.398104-31.396057-31.398104L126.718053 61.694107c-17.340947 0-31.397081 14.057157-31.397081 31.398104l0 832.036967c0 17.3389 14.057157 31.397081 31.397081 31.397081l353.222787 0c13.005198 0 23.548322-10.543124 23.548322-23.548322C503.489162 919.973762 492.946039 909.430638 479.94084 909.430638zM448.543759 658.249899c13.005198 0 23.548322-10.543124 23.548322-23.548322l0-86.343507 133.440152 0c13.005198 0 23.548322-10.543124 23.548322-23.548322 0-13.005198-10.543124-23.548322-23.548322-23.548322L472.091058 501.261425l0-62.795185 86.343507 0c13.005198 0 23.548322-10.543124 23.548322-23.548322 0-13.005198-10.543124-23.548322-23.548322-23.548322l-64.321958 0 65.420989-79.660294c8.92937-10.872628 9.314133-28.077475 0.855484-38.424124-8.455579-10.342556-22.551622-9.918907-31.482015 0.954745l-80.266092 97.735975-80.249719-97.712439c-8.931416-10.874675-23.027459-11.298324-31.482015-0.954745-8.456602 10.346649-8.073886 27.552519 0.857531 38.426171l65.402569 79.635735-80.21595 0c-13.006222 0-23.548322 10.543124-23.548322 23.548322 0 13.005198 10.5421 23.548322 23.548322 23.548322l102.042047 0 0 62.795185L275.856745 501.262448c-13.006222 0-23.548322 10.543124-23.548322 23.548322 0 13.005198 10.5421 23.548322 23.548322 23.548322l149.138692 0 0 86.343507C424.995437 647.705752 435.536514 658.249899 448.543759 658.249899zM922.212756 650.799206c-10.81123-11.492752-28.344558-11.492752-39.155788 0L705.900152 839.117223l-62.559824-62.608943c-11.42419-11.435447-29.945009-11.435447-41.3692 0-11.42419 11.432377-11.42419 29.968545 0 41.400922l82.740446 82.806961c6.585999 6.590092 15.528672 9.373485 24.112164 8.365528 6.414083-0.484024 12.701277-3.325745 17.60496-8.53949L922.212756 692.423209C933.027056 680.929434 933.027056 662.294005 922.212756 650.799206z" fill="#2dd46e" p-id="2642"></path></svg>