<?xml version="1.0" standalone="no"?><!DOCTYPE svg PUBLIC "-//W3C//DTD SVG 1.1//EN" "http://www.w3.org/Graphics/SVG/1.1/DTD/svg11.dtd"><svg t="1597331666126" class="icon" viewBox="0 0 1024 1024" version="1.1" xmlns="http://www.w3.org/2000/svg" p-id="2190" xmlns:xlink="http://www.w3.org/1999/xlink" width="200" height="200"><defs><style type="text/css"></style></defs><path d="M437.25500094 95.93563344a5.9409375 5.9409375 0 0 0 3.8475 2.625 5.8921875 5.8921875 0 0 0 4.543125-0.9675l16.2928125-11.475c2.65875-1.8740625 3.30375-5.565 1.4371875-8.22843656-13.6425-19.464375-24.54375-34.1784375-32.40375-43.734375A5.893125 5.893125 0 0 0 426.40625094 32.00000937a5.89875 5.89875 0 0 0-3.29625 1.00406251l-14.686875 9.8671875a5.94 5.94 0 0 0-2.533125 3.92625 5.93625 5.93625 0 0 0 1.1090625 4.54125c7.8253125 10.3846875 18.005625 25.3903125 30.2559375 44.59687406z" fill="#ff5f40" p-id="2191"></path><path d="M631.03437406 231.7456325a5.94 5.94 0 0 0-4.7625-2.398125l-0.148125 0.001875c-30.5278125 0.81-60.89437406 1.2215625-90.25593656 1.2215625-12.8559375 0-25.7371875-0.0834375-38.360625-0.238125a107.91562406 107.91562406 0 0 1 7.5440625-4.4896875c14.5865625-7.063125 29.210625-13.3828125 43.4671875-18.785625a5.919375 5.919375 0 0 0 3.7865625-6.1509375 207.77624812 207.77624812 0 0 1-0.7228125-8.593125c18.6609375 12.3778125 35.7215625 24.16875 50.80312406 35.113125a5.925 5.925 0 0 0 4.4203125 1.0490625 5.8753125 5.8753125 0 0 0 3.8625-2.4l11.4740625-16.06125a5.938125 5.938125 0 0 0 0.9984375-4.5365625 5.949375 5.949375 0 0 0-2.578125-3.8540625c-8.724375-5.694375-19.335-12.4490625-31.62-20.1309375a5020.81120125 5020.81120125 0 0 1 32.656875-13.25906156 5.9578125 5.9578125 0 0 0 3.4865625-3.8775 5.8771875 5.8771875 0 0 0-0.9346875-5.1253125l-11.701875-15.8315625a5.9353125 5.9353125 0 0 0-4.7578125-2.4009375 5.9371875 5.9371875 0 0 0-2.8209375 0.71625l-0.444375 0.2409375V43.42063437a5.919375 5.919375 0 0 0-5.91375-5.9128125H483.0875a5.9203125 5.9203125 0 0 0-5.9146875 5.9128125v152.37187313c0 4.54875-1.5403125 8.1553125-4.8496875 11.3503125a5.915625 5.915625 0 0 0-0.6 7.831875l11.0015625 14.475c-14.32125-2.120625-25.0790625-8.22375-32.04656156-18.2353125V115.01657094a5.9203125 5.9203125 0 0 0-5.91375-5.91375h-44.9775a5.9203125 5.9203125 0 0 0-5.91375 5.91375v16.981875a5.9203125 5.9203125 0 0 0 5.91375 5.9128125h21.39375v68.84249906c-6.22875 5.8115625-15.4903125 14.6540625-27.56625 26.319375a5.893125 5.893125 0 0 0-1.194375 6.8728125l9.4096875 19.0490625c0.8934375 1.805625 2.62125 3.0225 4.6678125 3.2578125a5.8959375 5.8959375 0 0 0 5.199375-2.1215625c9.016875-10.9575 16.4428125-19.468125 22.1465625-25.38375 12.1078125 15.25125 30.69 23.1984375 55.31156156 23.638125 31.8084375 0.6853125 64.61718656 1.033125 97.51499906 1.033125 10.9134375 0 22.09125-0.0384375 33.225-0.114375a5.9446875 5.9446875 0 0 0 5.506875-3.8653125c2.6259375-7.11375 4.809375-13.273125 6.4884375-18.3075a5.91375 5.91375 0 0 0-0.8559375-5.3859375zM506.4415625 120.57688344V106.24438344h68.94749906v14.3325h-68.94749906z m0-41.30531157V64.93907188h68.94749906v14.3325h-68.94749906z m5.63625 79.94343657a5.930625 5.930625 0 0 0-1.0725 4.60875 5.934375 5.934375 0 0 0 2.6484375 3.91875c7.275 4.6125 14.4159375 9.193125 21.31125 13.67062406-10.5440625 4.528125-20.0934375 8.5059375-28.524375 11.885625v-45.29062406h13.99125l-8.3540625 11.206875z m63.31124906-11.206875v0.0534375a5.9203125 5.9203125 0 0 0 5.91375 5.91375h0.3496875a1008.49592719 1008.49592719 0 0 1-20.6746875 10.310625 16369.64046469 16369.64046469 0 0 0-26.82656156-16.276875h41.23781156zM868.87062125 992H155.12937875c-40.6790625 0-73.77281156-33.095625-73.7728125-73.77374906V484.56781719c0-40.6790625 33.0946875-73.77281156 73.7728125-73.77281157h713.7412425c40.6790625 0 73.77281156 33.0946875 73.7728125 73.77281157v102.70874906c0 15.5325-12.5925 28.125-28.125 28.125H755.85968469c-47.41875 0-85.99687406 38.5771875-85.99687406 85.99593656s38.578125 85.99593656 85.99687406 85.99593657h158.65874906c15.5325 0 28.125 12.5925 28.125 28.125v102.70781156c0.0009375 40.678125-33.09375 73.77374906-73.7728125 73.77374906zM155.12937875 467.04406719c-9.6628125 0-17.5228125 7.8609375-17.5228125 17.5228125v433.65843375c0 9.6628125 7.8609375 17.52375 17.5228125 17.52375h713.7412425c9.6628125 0 17.5228125-7.861875 17.5228125-17.52375v-74.58281156H755.85968469c-78.43499906 0-142.24687406-63.81093656-142.24687313-142.24593657 0-78.43406156 63.81187406-142.24593656 142.24687313-142.24593562h130.53374906v-74.58375c0-9.6628125-7.8609375-17.5228125-17.5228125-17.5228125H155.12937875z" fill="#ff5f40" p-id="2192"></path><path d="M815.65249719 701.39656531c0 33.0215625-26.7721875 59.79281156-59.7928125 59.79281157-33.0234375 0-59.79468656-26.7721875-59.79468656-59.79281157 0-33.02625 26.7721875-59.79374906 59.79468656-59.79374906 33.0215625 0 59.79281156 26.7684375 59.7928125 59.79374906zM791.00843469 296.49313156l27.58125 100.00781156h58.34812406l-31.72499906-115.03593656c-6.1415625-22.2721875-25.7175-38.7346875-48.7096875-40.96687406a55.90312406 55.90312406 0 0 0-20.3503125 1.7671875L216.89187781 396.50094313h211.53374813l362.58280875-100.00781157zM355.82093937 55.73375937C354.14187687 41.58219687 346.23781437 33.67719687 332.08718938 32.00000937c-8.334375 0.8390625-14.5790625 4.1765625-18.73687501 9.99187501l-46.21687406 66.20437406-46.2178125-66.20437406C216.73812781 36.17657188 210.49250281 32.83907188 202.17875281 32.00000937c-14.1703125 1.6771875-22.0753125 9.5821875-23.7328125 23.73375001 0 4.9959375 1.6584375 9.5821875 4.996875 13.74l39.97125 56.20781156h-26.23125c-9.1734375 0.84-14.1684375 5.428125-14.98875 13.741875 0.8203125 8.3334375 5.8153125 12.920625 14.98875 13.74h46.2178125v21.2353125h-46.2178125c-9.1734375 0.84-14.1684375 5.4253125-14.98875 13.74093656 0.8203125 8.3325 5.8153125 12.920625 14.98875 13.74h46.2178125v38.724375c0.819375 14.1675 8.743125 21.2334375 23.7328125 21.2334375 14.9878125 0 22.8946875-7.0659375 23.73374906-21.2334375v-38.724375h46.216875c9.15375-0.819375 14.150625-5.4075 14.98875-13.74-0.8390625-8.315625-5.8359375-12.9009375-14.98875-13.74093656h-46.216875v-21.2353125h46.216875c9.15375-0.819375 14.150625-5.4065625 14.98875-13.74-0.8390625-8.3146875-5.8359375-12.901875-14.98875-13.741875h-26.23125l39.97125-56.20781157c3.3178125-4.1578125 4.996875-8.7440625 4.996875-13.74z" fill="#ff5f40" p-id="2193"></path></svg>