<?xml version="1.0" standalone="no"?><!DOCTYPE svg PUBLIC "-//W3C//DTD SVG 1.1//EN" "http://www.w3.org/Graphics/SVG/1.1/DTD/svg11.dtd"><svg t="1597218609503" class="icon" viewBox="0 0 1024 1024" version="1.1" xmlns="http://www.w3.org/2000/svg" p-id="2065" xmlns:xlink="http://www.w3.org/1999/xlink" width="200" height="200"><defs><style type="text/css"></style></defs><path d="M493.013333 815.658667a42.581333 42.581333 0 0 0 9.258667 46.506666l107.434667 107.434667 60.330666-60.330667-34.56-34.602666h303.786667v-85.333334H532.48a42.666667 42.666667 0 0 0-39.424 26.325334M949.674667 631.168l-107.434667-107.434667-60.330667 60.330667 34.56 34.56h-303.829333v85.333333h406.826667a42.666667 42.666667 0 0 0 30.165333-72.789333" fill="#3dc2ff" p-id="2066"></path><path d="M789.973333 314.282667l-298.666666-179.2-298.666667 179.2V832h234.410667v85.333333H149.930667a42.666667 42.666667 0 0 1-42.666667-42.666666V365.482667l-20.736 12.416L42.666667 304.768l426.666666-256c13.568-8.106667 30.378667-8.106667 43.946667 0l426.666667 256L896 377.898667l-20.693333-12.458667v104.661333h-85.333334V314.282667z" fill="#3880ff" p-id="2067"></path></svg>