<?xml version="1.0" standalone="no"?><!DOCTYPE svg PUBLIC "-//W3C//DTD SVG 1.1//EN" "http://www.w3.org/Graphics/SVG/1.1/DTD/svg11.dtd"><svg t="1597331702563" class="icon" viewBox="0 0 1024 1024" version="1.1" xmlns="http://www.w3.org/2000/svg" p-id="2930" xmlns:xlink="http://www.w3.org/1999/xlink" width="200" height="200"><defs><style type="text/css"></style></defs><path d="M864 426.64a381.71 381.71 0 0 0-320-232l-0.09-66h159a32 32 0 1 0 0-64H319.57a32 32 0 1 0 0 64h160.32l0.09 66A382.12 382.12 0 0 0 363.3 927.3 382.19 382.19 0 0 0 864 426.64z m-352 466.7c-175.35 0-318-142.65-318-318s142.65-318 318-318 318 142.66 318 318-142.65 318-318 318z" fill="#f09aea" p-id="2931"></path><path d="M635 409.17L534.66 509.94a70 70 0 1 0 44.22 46.29l101.51-101.9A32 32 0 1 0 635 409.17z" fill="#f09aea" p-id="2932"></path></svg>